<mxfile host="app.diagrams.net" modified="2022-04-01T06:29:31.965Z" agent="5.0 (Windows NT 10.0; Win64; x64) AppleWebKit/537.36 (KHTML, like Gecko) Chrome/99.0.4844.51 Safari/537.36 Edg/99.0.1150.39" etag="In3cY3LVuvKagAs7aoWD" version="17.1.3" type="github">
  <diagram id="C5RBs43oDa-KdzZeNtuy" name="Page-1">
    <mxGraphModel dx="2383" dy="991" grid="1" gridSize="10" guides="1" tooltips="1" connect="1" arrows="1" fold="1" page="1" pageScale="1" pageWidth="827" pageHeight="1169" math="0" shadow="0">
      <root>
        <mxCell id="WIyWlLk6GJQsqaUBKTNV-0" />
        <mxCell id="WIyWlLk6GJQsqaUBKTNV-1" parent="WIyWlLk6GJQsqaUBKTNV-0" />
        <mxCell id="A-abu7hLOD2YzKdoIDYg-33" style="edgeStyle=orthogonalEdgeStyle;rounded=0;orthogonalLoop=1;jettySize=auto;html=1;entryX=0;entryY=0.5;entryDx=0;entryDy=0;" edge="1" parent="WIyWlLk6GJQsqaUBKTNV-1" source="A-abu7hLOD2YzKdoIDYg-0" target="A-abu7hLOD2YzKdoIDYg-32">
          <mxGeometry relative="1" as="geometry">
            <Array as="points">
              <mxPoint x="90" y="302" />
              <mxPoint x="90" y="460" />
            </Array>
          </mxGeometry>
        </mxCell>
        <mxCell id="A-abu7hLOD2YzKdoIDYg-0" value="开始" style="ellipse;whiteSpace=wrap;html=1;" vertex="1" parent="WIyWlLk6GJQsqaUBKTNV-1">
          <mxGeometry x="-20" y="280" width="78" height="43" as="geometry" />
        </mxCell>
        <mxCell id="A-abu7hLOD2YzKdoIDYg-1" value="" style="edgeStyle=orthogonalEdgeStyle;rounded=0;orthogonalLoop=1;jettySize=auto;html=1;entryX=0;entryY=0.5;entryDx=0;entryDy=0;" edge="1" parent="WIyWlLk6GJQsqaUBKTNV-1" source="A-abu7hLOD2YzKdoIDYg-2" target="A-abu7hLOD2YzKdoIDYg-16">
          <mxGeometry relative="1" as="geometry">
            <mxPoint x="230" y="301.5" as="targetPoint" />
            <Array as="points">
              <mxPoint x="230" y="302" />
              <mxPoint x="230" y="250" />
            </Array>
          </mxGeometry>
        </mxCell>
        <mxCell id="A-abu7hLOD2YzKdoIDYg-19" style="edgeStyle=orthogonalEdgeStyle;rounded=0;orthogonalLoop=1;jettySize=auto;html=1;exitX=1;exitY=0.5;exitDx=0;exitDy=0;entryX=0;entryY=0.5;entryDx=0;entryDy=0;" edge="1" parent="WIyWlLk6GJQsqaUBKTNV-1" source="A-abu7hLOD2YzKdoIDYg-2" target="A-abu7hLOD2YzKdoIDYg-17">
          <mxGeometry relative="1" as="geometry">
            <Array as="points">
              <mxPoint x="230" y="302" />
              <mxPoint x="230" y="360" />
            </Array>
          </mxGeometry>
        </mxCell>
        <mxCell id="A-abu7hLOD2YzKdoIDYg-2" value="各引擎持续消费安全日志" style="rounded=1;whiteSpace=wrap;html=1;fontSize=12;glass=0;strokeWidth=1;shadow=0;" vertex="1" parent="WIyWlLk6GJQsqaUBKTNV-1">
          <mxGeometry x="110" y="281.5" width="87" height="40" as="geometry" />
        </mxCell>
        <mxCell id="A-abu7hLOD2YzKdoIDYg-4" value="结束" style="ellipse;whiteSpace=wrap;html=1;" vertex="1" parent="WIyWlLk6GJQsqaUBKTNV-1">
          <mxGeometry x="920" y="281.5" width="78" height="43" as="geometry" />
        </mxCell>
        <mxCell id="A-abu7hLOD2YzKdoIDYg-5" style="edgeStyle=orthogonalEdgeStyle;rounded=0;orthogonalLoop=1;jettySize=auto;html=1;exitX=1;exitY=0.5;exitDx=0;exitDy=0;entryX=0;entryY=0.5;entryDx=0;entryDy=0;" edge="1" parent="WIyWlLk6GJQsqaUBKTNV-1" source="A-abu7hLOD2YzKdoIDYg-0" target="A-abu7hLOD2YzKdoIDYg-2">
          <mxGeometry relative="1" as="geometry">
            <mxPoint x="190" y="311.4814814814814" as="sourcePoint" />
            <mxPoint x="290" y="351.4814814814814" as="targetPoint" />
          </mxGeometry>
        </mxCell>
        <mxCell id="A-abu7hLOD2YzKdoIDYg-21" value="" style="edgeStyle=orthogonalEdgeStyle;rounded=0;orthogonalLoop=1;jettySize=auto;html=1;" edge="1" parent="WIyWlLk6GJQsqaUBKTNV-1" source="A-abu7hLOD2YzKdoIDYg-16" target="A-abu7hLOD2YzKdoIDYg-20">
          <mxGeometry relative="1" as="geometry" />
        </mxCell>
        <mxCell id="A-abu7hLOD2YzKdoIDYg-16" value="生成告警/安全事件" style="rounded=1;whiteSpace=wrap;html=1;fontSize=12;glass=0;strokeWidth=1;shadow=0;" vertex="1" parent="WIyWlLk6GJQsqaUBKTNV-1">
          <mxGeometry x="260" y="230" width="87" height="40" as="geometry" />
        </mxCell>
        <mxCell id="A-abu7hLOD2YzKdoIDYg-26" value="" style="edgeStyle=orthogonalEdgeStyle;rounded=0;orthogonalLoop=1;jettySize=auto;html=1;entryX=0;entryY=0.5;entryDx=0;entryDy=0;" edge="1" parent="WIyWlLk6GJQsqaUBKTNV-1" source="A-abu7hLOD2YzKdoIDYg-17" target="A-abu7hLOD2YzKdoIDYg-27">
          <mxGeometry relative="1" as="geometry">
            <mxPoint x="380" y="360" as="targetPoint" />
          </mxGeometry>
        </mxCell>
        <mxCell id="A-abu7hLOD2YzKdoIDYg-17" value="生成多实体行为画像" style="rounded=1;whiteSpace=wrap;html=1;fontSize=12;glass=0;strokeWidth=1;shadow=0;" vertex="1" parent="WIyWlLk6GJQsqaUBKTNV-1">
          <mxGeometry x="260" y="340" width="87" height="40" as="geometry" />
        </mxCell>
        <mxCell id="A-abu7hLOD2YzKdoIDYg-30" value="" style="edgeStyle=orthogonalEdgeStyle;rounded=0;orthogonalLoop=1;jettySize=auto;html=1;" edge="1" parent="WIyWlLk6GJQsqaUBKTNV-1" source="A-abu7hLOD2YzKdoIDYg-20" target="A-abu7hLOD2YzKdoIDYg-29">
          <mxGeometry relative="1" as="geometry" />
        </mxCell>
        <mxCell id="A-abu7hLOD2YzKdoIDYg-20" value="自动溯源事件展示" style="rounded=1;whiteSpace=wrap;html=1;fontSize=12;glass=0;strokeWidth=1;shadow=0;" vertex="1" parent="WIyWlLk6GJQsqaUBKTNV-1">
          <mxGeometry x="380" y="230" width="87" height="40" as="geometry" />
        </mxCell>
        <mxCell id="A-abu7hLOD2YzKdoIDYg-44" style="edgeStyle=orthogonalEdgeStyle;rounded=0;orthogonalLoop=1;jettySize=auto;html=1;exitX=1;exitY=0.5;exitDx=0;exitDy=0;entryX=0;entryY=0.5;entryDx=0;entryDy=0;" edge="1" parent="WIyWlLk6GJQsqaUBKTNV-1" source="A-abu7hLOD2YzKdoIDYg-27" target="A-abu7hLOD2YzKdoIDYg-41">
          <mxGeometry relative="1" as="geometry" />
        </mxCell>
        <mxCell id="A-abu7hLOD2YzKdoIDYg-27" value="画像溯源分析" style="rounded=1;whiteSpace=wrap;html=1;fontSize=12;glass=0;strokeWidth=1;shadow=0;" vertex="1" parent="WIyWlLk6GJQsqaUBKTNV-1">
          <mxGeometry x="496.5" y="340" width="87" height="40" as="geometry" />
        </mxCell>
        <mxCell id="A-abu7hLOD2YzKdoIDYg-31" value="" style="edgeStyle=orthogonalEdgeStyle;rounded=0;orthogonalLoop=1;jettySize=auto;html=1;" edge="1" parent="WIyWlLk6GJQsqaUBKTNV-1" source="A-abu7hLOD2YzKdoIDYg-29" target="A-abu7hLOD2YzKdoIDYg-27">
          <mxGeometry relative="1" as="geometry">
            <Array as="points">
              <mxPoint x="544" y="340" />
              <mxPoint x="544" y="340" />
            </Array>
          </mxGeometry>
        </mxCell>
        <mxCell id="A-abu7hLOD2YzKdoIDYg-42" style="edgeStyle=orthogonalEdgeStyle;rounded=0;orthogonalLoop=1;jettySize=auto;html=1;exitX=1;exitY=0.5;exitDx=0;exitDy=0;entryX=0;entryY=0.5;entryDx=0;entryDy=0;" edge="1" parent="WIyWlLk6GJQsqaUBKTNV-1" source="A-abu7hLOD2YzKdoIDYg-29" target="A-abu7hLOD2YzKdoIDYg-41">
          <mxGeometry relative="1" as="geometry" />
        </mxCell>
        <mxCell id="A-abu7hLOD2YzKdoIDYg-29" value="是否需要画像分析" style="rhombus;whiteSpace=wrap;html=1;" vertex="1" parent="WIyWlLk6GJQsqaUBKTNV-1">
          <mxGeometry x="503.5" y="210" width="80" height="80" as="geometry" />
        </mxCell>
        <mxCell id="A-abu7hLOD2YzKdoIDYg-46" style="edgeStyle=orthogonalEdgeStyle;rounded=0;orthogonalLoop=1;jettySize=auto;html=1;entryX=0;entryY=0.5;entryDx=0;entryDy=0;" edge="1" parent="WIyWlLk6GJQsqaUBKTNV-1" source="A-abu7hLOD2YzKdoIDYg-32" target="A-abu7hLOD2YzKdoIDYg-4">
          <mxGeometry relative="1" as="geometry">
            <Array as="points">
              <mxPoint x="880" y="460" />
              <mxPoint x="880" y="302" />
            </Array>
          </mxGeometry>
        </mxCell>
        <mxCell id="A-abu7hLOD2YzKdoIDYg-32" value="系统监控及管理" style="rounded=1;whiteSpace=wrap;html=1;fontSize=12;glass=0;strokeWidth=1;shadow=0;" vertex="1" parent="WIyWlLk6GJQsqaUBKTNV-1">
          <mxGeometry x="380" y="440" width="87" height="40" as="geometry" />
        </mxCell>
        <mxCell id="A-abu7hLOD2YzKdoIDYg-36" value="No" style="text;html=1;align=center;verticalAlign=middle;resizable=0;points=[];autosize=1;strokeColor=none;fillColor=none;" vertex="1" parent="WIyWlLk6GJQsqaUBKTNV-1">
          <mxGeometry x="590" y="230" width="30" height="20" as="geometry" />
        </mxCell>
        <mxCell id="A-abu7hLOD2YzKdoIDYg-37" value="Yes" style="text;html=1;align=center;verticalAlign=middle;resizable=0;points=[];autosize=1;strokeColor=none;fillColor=none;" vertex="1" parent="WIyWlLk6GJQsqaUBKTNV-1">
          <mxGeometry x="545" y="280" width="30" height="20" as="geometry" />
        </mxCell>
        <mxCell id="A-abu7hLOD2YzKdoIDYg-45" style="edgeStyle=orthogonalEdgeStyle;rounded=0;orthogonalLoop=1;jettySize=auto;html=1;entryX=0;entryY=0.5;entryDx=0;entryDy=0;" edge="1" parent="WIyWlLk6GJQsqaUBKTNV-1" source="A-abu7hLOD2YzKdoIDYg-38" target="A-abu7hLOD2YzKdoIDYg-4">
          <mxGeometry relative="1" as="geometry">
            <mxPoint x="920" y="301.5" as="targetPoint" />
            <Array as="points">
              <mxPoint x="890" y="302" />
              <mxPoint x="890" y="302" />
            </Array>
          </mxGeometry>
        </mxCell>
        <mxCell id="A-abu7hLOD2YzKdoIDYg-38" value="安全事件研判定性" style="rounded=1;whiteSpace=wrap;html=1;fontSize=12;glass=0;strokeWidth=1;shadow=0;" vertex="1" parent="WIyWlLk6GJQsqaUBKTNV-1">
          <mxGeometry x="760" y="281.5" width="87" height="40" as="geometry" />
        </mxCell>
        <mxCell id="A-abu7hLOD2YzKdoIDYg-43" style="edgeStyle=orthogonalEdgeStyle;rounded=0;orthogonalLoop=1;jettySize=auto;html=1;exitX=1;exitY=0.5;exitDx=0;exitDy=0;entryX=0;entryY=0.5;entryDx=0;entryDy=0;" edge="1" parent="WIyWlLk6GJQsqaUBKTNV-1" source="A-abu7hLOD2YzKdoIDYg-41" target="A-abu7hLOD2YzKdoIDYg-38">
          <mxGeometry relative="1" as="geometry" />
        </mxCell>
        <mxCell id="A-abu7hLOD2YzKdoIDYg-41" value="人工溯源（追踪溯源辅助）" style="rounded=1;whiteSpace=wrap;html=1;fontSize=12;glass=0;strokeWidth=1;shadow=0;" vertex="1" parent="WIyWlLk6GJQsqaUBKTNV-1">
          <mxGeometry x="640" y="281.5" width="87" height="40" as="geometry" />
        </mxCell>
      </root>
    </mxGraphModel>
  </diagram>
</mxfile>
